# xmcd
#
# Track frame offsets:
#	150
#	14473
#	26703
#	45369
#	60988
#	72354
#	89581
#	104613
#	126483
#	141331
#
# Disc length: 2084 seconds
#
# Revision: 0
# Processed by: cddbd v1.5.1PL0 Copyright (c) Steve Scherf et al.
# Submitted via: dBpowerAMP V4.0
#
DISCID=8f08220a
DTITLE=John Martin - No Fear
DYEAR=2005
DGENRE=Country
TTITLE0=Heroes
TTITLE1=Picture Of Me Without You
TTITLE2=No Fear
TTITLE3=I Believe
TTITLE4=Time Flys
TTITLE5=Standin' In Colorado
TTITLE6=Drinkin' For A Livin'
TTITLE7=Goodbye Grandpa
TTITLE8=Forever
TTITLE9=Hold Off On The Whiskey
EXTD=Artist - John Martin\nAlbum Name - No Fear
EXTT0=
EXTT1=
EXTT2=
EXTT3=
EXTT4=
EXTT5=
EXTT6=
EXTT7=
EXTT8=
EXTT9=
PLAYORDER=
